<svg width="18" height="17" viewBox="0 0 18 17" fill="none" xmlns="http://www.w3.org/2000/svg">
<path d="M5.66668 16.5H2.50001C2.04168 16.5 1.64932 16.3368 1.32293 16.0104C0.996538 15.684 0.833344 15.2917 0.833344 14.8333V11.6667C1.50001 11.6667 2.08334 11.4549 2.58334 11.0313C3.08334 10.6076 3.33334 10.0694 3.33334 9.41667C3.33334 8.76389 3.08334 8.22569 2.58334 7.80208C2.08334 7.37847 1.50001 7.16667 0.833344 7.16667V4C0.833344 3.54167 0.996538 3.14931 1.32293 2.82292C1.64932 2.49653 2.04168 2.33333 2.50001 2.33333H5.83334C5.83334 1.75 6.03473 1.25694 6.43751 0.854167C6.84029 0.451389 7.33334 0.25 7.91668 0.25C8.50001 0.25 8.99307 0.451389 9.39584 0.854167C9.79862 1.25694 10 1.75 10 2.33333H13.3333C13.7917 2.33333 14.184 2.49653 14.5104 2.82292C14.8368 3.14931 15 3.54167 15 4V7.33333C15.5833 7.33333 16.0764 7.53472 16.4792 7.9375C16.882 8.34028 17.0833 8.83333 17.0833 9.41667C17.0833 10 16.882 10.4931 16.4792 10.8958C16.0764 11.2986 15.5833 11.5 15 11.5V14.8333C15 15.2917 14.8368 15.684 14.5104 16.0104C14.184 16.3368 13.7917 16.5 13.3333 16.5H10.1667C10.1667 15.8056 9.94793 15.2153 9.51043 14.7292C9.07293 14.2431 8.54168 14 7.91668 14C7.29168 14 6.76043 14.2431 6.32293 14.7292C5.88543 15.2153 5.66668 15.8056 5.66668 16.5Z" fill="#94A3B8"/>
</svg>
