<svg width="20" height="16" viewBox="0 0 20 16" fill="none" xmlns="http://www.w3.org/2000/svg">
<path d="M11.6525 7.23167H13.4183C13.4593 7.23167 13.4986 7.21545 13.5277 7.18656C13.5567 7.15767 13.5731 7.11846 13.5733 7.0775V5.505C13.5733 5.46389 13.557 5.42447 13.528 5.3954C13.4989 5.36633 13.4595 5.35 13.4183 5.35H11.6525C11.6116 5.35 11.5724 5.36624 11.5435 5.39515C11.5146 5.42407 11.4983 5.46328 11.4983 5.50417V7.0775C11.4983 7.1625 11.5675 7.23167 11.6525 7.23167ZM9.19085 2.70667H10.9558C10.997 2.70667 11.0364 2.69034 11.0654 2.66127C11.0945 2.6322 11.1108 2.59277 11.1108 2.55167V0.978332C11.1106 0.937368 11.0942 0.898157 11.0652 0.869269C11.0361 0.840381 10.9968 0.824165 10.9558 0.824165H9.19085C9.14996 0.824165 9.11075 0.840408 9.08184 0.86932C9.05292 0.898232 9.03668 0.937444 9.03668 0.978332V2.55167C9.03668 2.63667 9.10501 2.70667 9.19085 2.70667ZM9.19085 4.96917H10.9558C10.9969 4.96895 11.0362 4.95255 11.0652 4.92353C11.0942 4.8945 11.1106 4.85521 11.1108 4.81417V3.24167C11.1106 3.2007 11.0942 3.16149 11.0652 3.1326C11.0361 3.10371 10.9968 3.0875 10.9558 3.0875H9.19085C9.14996 3.0875 9.11075 3.10374 9.08184 3.13265C9.05292 3.16157 9.03668 3.20078 9.03668 3.24167V4.81417C9.03668 4.89917 9.10501 4.96833 9.19085 4.96917ZM6.74918 4.96917H8.51585C8.55667 4.96873 8.59567 4.9522 8.62437 4.92318C8.65308 4.89416 8.66918 4.85499 8.66918 4.81417V3.24167C8.66918 3.20078 8.65294 3.16157 8.62403 3.13265C8.59512 3.10374 8.5559 3.0875 8.51502 3.0875H6.75001C6.70913 3.0875 6.66991 3.10374 6.641 3.13265C6.61209 3.16157 6.59585 3.20078 6.59585 3.24167V4.81417C6.59585 4.89917 6.66501 4.96833 6.75001 4.96917M4.28001 4.96917H6.04585C6.08681 4.96895 6.12602 4.95252 6.15491 4.92347C6.1838 4.89443 6.20002 4.85513 6.20001 4.81417V3.24167C6.20001 3.20078 6.18377 3.16157 6.15486 3.13265C6.12595 3.10374 6.08674 3.0875 6.04585 3.0875H4.28001C4.23905 3.0875 4.19975 3.10371 4.17071 3.1326C4.14166 3.16149 4.12523 3.2007 4.12501 3.24167V4.81417C4.12501 4.89917 4.19501 4.96833 4.28001 4.96917ZM9.19085 7.23167H10.9558C10.9968 7.23167 11.0361 7.21545 11.0652 7.18656C11.0942 7.15767 11.1106 7.11846 11.1108 7.0775V5.505C11.1108 5.46389 11.0945 5.42447 11.0654 5.3954C11.0364 5.36633 10.997 5.35 10.9558 5.35H9.19085C9.14996 5.35 9.11075 5.36624 9.08184 5.39515C9.05292 5.42407 9.03668 5.46328 9.03668 5.50417V7.0775C9.03668 7.1625 9.10501 7.23167 9.19085 7.23167ZM6.74918 7.23167H8.51585C8.55659 7.23145 8.59559 7.21511 8.62432 7.18622C8.65305 7.15733 8.66918 7.11824 8.66918 7.0775V5.505C8.66929 5.48475 8.66541 5.46468 8.65777 5.44594C8.65012 5.42719 8.63886 5.41013 8.62462 5.39574C8.61038 5.38135 8.59344 5.3699 8.57478 5.36205C8.55612 5.3542 8.53609 5.35011 8.51585 5.35H6.74918C6.70844 5.35022 6.66944 5.36656 6.64071 5.39545C6.61198 5.42433 6.59585 5.46342 6.59585 5.50417V7.0775C6.59585 7.1625 6.66501 7.23167 6.75001 7.23167M4.28001 7.23167H6.04585C6.08674 7.23167 6.12595 7.21542 6.15486 7.18651C6.18377 7.1576 6.20001 7.11839 6.20001 7.0775V5.505C6.20012 5.48475 6.19625 5.46468 6.1886 5.44594C6.18095 5.42719 6.16969 5.41013 6.15545 5.39574C6.14121 5.38135 6.12428 5.3699 6.10562 5.36205C6.08695 5.3542 6.06693 5.35011 6.04668 5.35H4.28001C4.23891 5.35 4.19948 5.36633 4.17041 5.3954C4.14134 5.42447 4.12501 5.46389 4.12501 5.505V7.0775C4.12501 7.1625 4.19501 7.23167 4.28001 7.23167ZM1.84668 7.23167H3.61335C3.65409 7.23145 3.69309 7.21511 3.72182 7.18622C3.75055 7.15733 3.76668 7.11824 3.76668 7.0775V5.505C3.76679 5.48475 3.76291 5.46468 3.75527 5.44594C3.74762 5.42719 3.73636 5.41013 3.72212 5.39574C3.70788 5.38135 3.69094 5.3699 3.67228 5.36205C3.65362 5.3542 3.63359 5.35011 3.61335 5.35H1.84668C1.80594 5.35022 1.76694 5.36656 1.73821 5.39545C1.70947 5.42433 1.69335 5.46342 1.69335 5.50417V7.0775C1.69335 7.1625 1.76085 7.23167 1.84668 7.23167ZM19.8025 6.24167C19.7483 6.19917 19.2425 5.81667 18.1742 5.81667C17.8925 5.8175 17.6108 5.84167 17.3325 5.88917C17.1258 4.4725 15.955 3.78083 15.9025 3.75083L15.6158 3.585L15.4275 3.8575C15.1908 4.2225 15.0192 4.62583 14.9175 5.04917C14.7258 5.8575 14.8425 6.6175 15.2533 7.26667C14.7575 7.54333 13.9617 7.61083 13.8 7.61667H0.625848C0.460443 7.61688 0.301851 7.68257 0.184736 7.79938C0.0676212 7.91618 0.00150811 8.0746 0.000847521 8.24C-0.0145844 9.39403 0.180843 10.5412 0.577514 11.625C1.03168 12.815 1.70668 13.6917 2.58585 14.2283C3.56918 14.8308 5.16918 15.1758 6.98168 15.1758C7.80085 15.1783 8.61751 15.1042 9.42335 14.9542C10.5424 14.7486 11.6192 14.3574 12.6092 13.7967C13.4258 13.3242 14.1592 12.7233 14.7842 12.0167C15.8275 10.835 16.4492 9.51917 16.9117 8.35H17.0958C18.2392 8.35 18.9417 7.8925 19.3292 7.50917C19.5867 7.265 19.7875 6.9675 19.9183 6.6375L20 6.3975L19.8025 6.24167Z" fill="#2496ED"/>
</svg>
